<?xml version="1.0" encoding="utf-8"?>
<!-- Generator: Adobe Illustrator 17.0.1, SVG Export Plug-In . SVG Version: 6.00 Build 0)  -->
<!DOCTYPE svg PUBLIC "-//W3C//DTD SVG 1.1//EN" "http://www.w3.org/Graphics/SVG/1.1/DTD/svg11.dtd">
<svg version="1.1" id="Layer_1" xmlns="http://www.w3.org/2000/svg" xmlns:xlink="http://www.w3.org/1999/xlink" x="0px" y="0px"
	 width="123px" height="27px" viewBox="0.5 0 123 27" enable-background="new 0.5 0 123 27" xml:space="preserve">
<rect x="80.5" y="8.929" fill="#FFFFFF" width="2.948" height="17.071"/>
<path fill="#FFFFFF" d="M57.62,14.21c-0.199-3.257-2.878-5.846-6.186-5.846c-1.949,0-3.669,0.915-4.811,2.317
	c-1.139-1.403-2.859-2.32-4.81-2.32c-3.313,0-5.989,2.589-6.186,5.849L35.628,26h2.786v-6.21v-5.205
	c0-1.875,1.521-3.398,3.398-3.398c1.876,0,3.398,1.522,3.398,3.398v5.205V26h2.826v-6.21v-5.205c0-1.875,1.521-3.398,3.398-3.398
	c1.875,0,3.398,1.522,3.398,3.398v5.205V26h2.787L57.62,14.21z"/>
<path fill="#FFFFFF" d="M15.842,24.18c-1.578,1.378-3.642,2.214-5.902,2.214c-4.957,0-8.975-4.018-8.975-8.974
	s4.018-8.974,8.974-8.974c2.229,0,4.267,0.812,5.836,2.157l-1.982,2.242c-1.041-0.878-2.385-1.406-3.854-1.406
	c-3.305,0-5.983,2.678-5.983,5.982s2.678,5.983,5.983,5.983c1.529,0,2.923-0.573,3.98-1.516L15.842,24.18z"/>
<path fill="#FFFFFF" d="M33.871,17.42c0,4.956-4.018,8.974-8.975,8.974c-4.956,0-8.974-4.018-8.974-8.974s4.018-8.974,8.974-8.974
	C29.852,8.445,33.871,12.464,33.871,17.42z M24.896,11.438c-3.304,0-5.983,2.678-5.983,5.982s2.678,5.983,5.983,5.983
	c3.304,0,5.983-2.679,5.983-5.983S28.2,11.438,24.896,11.438z"/>
<path fill="#FFFFFF" d="M69.267,8.445c-2.318,0-4.432,0.881-6.025,2.324V0.394h-2.948v17.072h0.001c0,0.002,0,0.005,0,0.007
	c0,0.003-0.001,0.005-0.001,0.009c0,0.134,0.004,0.252,0.011,0.359c0.22,4.76,4.148,8.553,8.964,8.553
	c4.957,0,8.975-4.018,8.975-8.974C78.242,12.464,74.224,8.445,69.267,8.445z M69.267,23.403c-3.304,0-5.983-2.679-5.983-5.983
	s2.68-5.982,5.983-5.982c3.305,0,5.984,2.678,5.984,5.982S72.572,23.403,69.267,23.403z"/>
<path fill="#FFFFFF" d="M123.114,17.42c0,0.362-0.024,0.719-0.065,1.069h-3.024h-11.771c0.504,2.794,2.946,4.913,5.886,4.913
	c0.078,0,0.231,0,0.231,0v2.991c0,0-0.153,0-0.231,0c-4.957,0-8.975-4.018-8.975-8.974s4.018-8.974,8.975-8.974
	c4.501,0,8.227,3.315,8.874,7.635C123.079,16.519,123.114,16.965,123.114,17.42z M119.97,16.08c-0.608-2.658-2.987-4.643-5.83-4.643
	c-2.844,0-5.224,1.984-5.831,4.643H119.97z"/>
<path fill="#FFFFFF" d="M99.955,10.367c-1.465-1.25-3.365-2.005-5.442-2.005c-2.078,0-3.976,0.756-5.442,2.005
	c-1.805,1.539-2.951,3.828-2.951,6.388V26h2.951v-2.858v-5.984V16.35c0.208-2.825,2.563-5.054,5.442-5.054s5.233,2.228,5.442,5.054
	v0.809v5.984V26h2.951v-9.245C102.907,14.195,101.761,11.906,99.955,10.367z"/>
</svg>
